<?xml version="1.0" standalone="no"?>
<!DOCTYPE svg PUBLIC "-//W3C//DTD SVG 20010904//EN"
 "http://www.w3.org/TR/2001/REC-SVG-20010904/DTD/svg10.dtd">
<svg version="1.0" xmlns="http://www.w3.org/2000/svg"
 width="1000.000000pt" height="1000.000000pt" viewBox="0 0 1000.000000 1000.000000"
 preserveAspectRatio="xMidYMid meet">
<metadata>
Created by potrace 1.11, written by Peter Selinger 2001-2013
</metadata>
<g transform="translate(0.000000,1000.000000) scale(0.100000,-0.100000)"
fill="#000000" stroke="none">
<path d="M1140 9985 c-369 -73 -663 -348 -761 -715 -20 -72 -23 -110 -23 -240
0 -177 -1 -170 142 -640 143 -471 284 -936 376 -1245 20 -66 49 -163 65 -215
16 -52 66 -216 111 -365 45 -148 89 -297 100 -330 10 -33 59 -197 110 -365 50
-168 106 -350 123 -405 17 -55 32 -105 33 -112 1 -7 11 -41 23 -75 11 -35 38
-124 60 -198 21 -74 87 -292 146 -485 177 -583 294 -970 355 -1175 59 -198
129 -430 330 -1090 61 -201 113 -372 114 -380 4 -14 29 -98 113 -370 19 -63
36 -122 38 -130 4 -15 105 -349 206 -679 28 -90 68 -198 89 -240 90 -180 241
-333 415 -422 56 -29 157 -69 185 -74 3 0 30 -7 60 -15 46 -13 212 -15 1060
-15 553 0 1026 3 1052 8 194 32 425 162 554 313 125 145 170 241 258 544 13
47 56 191 96 320 39 129 82 273 96 320 14 47 41 137 60 200 20 63 78 255 129
425 51 171 153 506 225 745 72 239 133 442 135 450 2 8 16 53 30 100 15 47 33
105 40 130 16 59 371 1234 440 1460 29 96 144 477 255 845 111 369 233 774
271 900 94 310 118 391 136 450 8 28 19 61 24 75 l9 25 408 1 c388 0 410 1
477 22 163 50 287 179 331 345 11 42 14 224 14 982 -1 880 -2 933 -19 986 -31
92 -61 140 -125 205 -65 65 -127 102 -216 128 -49 15 -176 16 -1320 13 -696
-1 -1274 -5 -1285 -9 -11 -3 -49 -14 -85 -23 -282 -73 -545 -312 -647 -589
-14 -36 -85 -302 -99 -366 -3 -13 -16 -67 -30 -120 -14 -52 -28 -106 -30 -120
-3 -14 -9 -38 -14 -55 -8 -27 -156 -603 -166 -647 -9 -41 -14 -59 -49 -198
-20 -80 -38 -152 -40 -160 -8 -32 -126 -498 -195 -765 -39 -154 -73 -288 -75
-297 -2 -9 -36 -143 -75 -298 -39 -155 -73 -291 -75 -302 -3 -12 -9 -35 -14
-52 -6 -17 -12 -42 -15 -56 -3 -14 -12 -50 -21 -80 -8 -30 -18 -68 -21 -85 -3
-16 -13 -61 -24 -100 -33 -123 -122 -467 -125 -484 -2 -9 -22 -90 -45 -181
-23 -91 -43 -172 -45 -180 -4 -18 -78 -321 -105 -430 -10 -41 -21 -68 -24 -60
-6 17 -73 283 -80 320 -2 14 -19 81 -36 150 -18 69 -33 132 -35 140 -5 22 -57
222 -109 415 -25 94 -63 240 -85 325 -84 325 -110 429 -140 540 -25 96 -124
480 -136 530 -2 8 -11 42 -20 75 -9 33 -18 67 -20 75 -2 8 -22 87 -45 175 -23
88 -43 167 -45 175 -6 29 -146 567 -180 695 -19 72 -55 211 -80 310 -26 99
-56 214 -66 255 -11 41 -21 82 -23 90 -2 8 -22 85 -44 170 -22 85 -63 244 -91
352 -67 260 -100 343 -184 458 -157 217 -397 364 -653 400 -117 16 -1368 12
-1454 -5z m1414 -485 c132 -27 270 -133 328 -252 23 -47 47 -119 63 -188 1 -8
26 -103 53 -210 28 -107 71 -274 96 -370 46 -180 75 -291 127 -490 17 -63 55
-212 85 -330 31 -118 65 -249 76 -290 11 -41 24 -91 28 -110 4 -19 29 -116 55
-215 26 -99 48 -187 50 -195 2 -8 16 -60 30 -115 15 -55 28 -107 30 -115 2 -8
18 -69 35 -135 46 -175 111 -428 115 -446 2 -9 17 -67 34 -130 36 -138 112
-428 116 -449 2 -8 20 -76 40 -150 41 -155 273 -1070 279 -1103 2 -12 12 -53
21 -92 9 -38 18 -77 20 -85 45 -201 260 -1076 325 -1325 24 -88 50 -189 59
-225 16 -61 19 -65 47 -68 l31 -3 33 123 c62 231 94 354 104 395 3 10 43 173
91 363 47 190 88 355 91 367 4 22 83 352 109 458 9 33 17 71 20 84 2 13 9 38
14 55 8 26 40 160 56 235 9 40 13 56 35 141 12 47 23 92 25 100 2 8 48 193
103 410 55 217 151 593 212 835 61 242 134 528 161 635 28 107 52 206 55 219
3 14 7 28 9 31 2 4 7 22 10 40 3 18 17 74 30 124 27 104 138 542 355 1401 196
776 193 764 229 832 66 124 182 213 318 244 51 11 2389 17 2400 5 5 -4 8
-1574 4 -1681 -1 -20 -7 -20 -393 -20 -429 1 -466 -3 -574 -55 -77 -38 -170
-129 -208 -205 -16 -32 -95 -279 -177 -549 -241 -800 -339 -1128 -354 -1176
-18 -56 -172 -568 -190 -630 -7 -25 -38 -128 -69 -230 -32 -102 -68 -221 -80
-265 -13 -44 -81 -269 -151 -500 -70 -231 -146 -485 -170 -565 -24 -80 -53
-176 -65 -215 -11 -38 -34 -113 -50 -165 -16 -52 -73 -239 -126 -415 -53 -176
-105 -349 -116 -385 -11 -36 -32 -108 -48 -160 -15 -52 -91 -304 -168 -560
-77 -256 -170 -564 -207 -685 -74 -246 -108 -329 -162 -389 -68 -76 -166 -135
-258 -156 -35 -8 -332 -11 -980 -11 -907 0 -932 1 -996 20 -77 24 -171 82
-217 135 -68 77 -96 136 -142 296 -10 36 -41 139 -68 230 -28 91 -86 284 -130
430 -44 146 -103 339 -130 430 -56 183 -204 672 -232 765 -110 367 -155 515
-235 780 -52 171 -148 490 -215 710 -66 220 -132 436 -145 480 -14 44 -48 157
-76 250 -28 94 -76 251 -106 350 -30 99 -58 194 -62 210 -5 17 -22 75 -39 130
-17 55 -48 154 -68 220 -20 66 -65 217 -101 335 -36 118 -69 229 -73 245 -5
17 -34 113 -65 215 -61 202 -168 554 -295 975 -45 149 -127 419 -182 600 -55
182 -113 373 -128 425 -16 52 -38 127 -50 165 -55 185 8 399 152 513 90 71
155 98 268 111 108 12 1211 4 1274 -9z"/>
</g>
</svg>
