<svg xmlns="http://www.w3.org/2000/svg" viewBox="0 0 87.71 39.84"><defs><style>.cls-1{fill:#43c0ff;}.cls-2{fill:#4addb9;}</style></defs><title>Asset 1</title><g id="Layer_2" data-name="Layer 2"><g id="Layer_1-2" data-name="Layer 1"><path class="cls-1" d="M35.27,1V8H32.2a2,2,0,0,0-1.92,1.43L22.05,36.73a2,2,0,0,1-1.91,1.43H13a2,2,0,0,1-1.92-1.43L1.09,3.58A2,2,0,0,1,3,1H7.65A2,2,0,0,1,9.59,2.5l4.09,15.81c1.1,4.07,1.85,7.82,3,11.92h.23c1.13-4.1,1.92-7.85,3-11.92l4-15.8A2,2,0,0,1,25.8,1h9.47m0-1H25.8a3,3,0,0,0-2.91,2.27l-4,15.8c-.46,1.77-.88,3.51-1.28,5.19-.27,1.12-.55,2.27-.84,3.43-.23-.94-.45-1.86-.67-2.77-.45-1.9-.91-3.86-1.46-5.87L10.55,2.25A3,3,0,0,0,7.65,0H3A3,3,0,0,0,.13,3.87L10.15,37A3,3,0,0,0,13,39.16h7.12A3,3,0,0,0,23,37L31.23,9.76a1,1,0,0,1,1-.72h3.07a1,1,0,0,0,1-1V1A1,1,0,0,0,36,.29,1,1,0,0,0,35.27,0Z"/><path class="cls-2" d="M35.27,1H84.58a2,2,0,0,1,2,2V5.47a2,2,0,0,1-.33,1.1L72.18,28a2,2,0,0,0,1.68,3.1H84.71a2,2,0,0,1,2,2v3a2,2,0,0,1-2,2H61.8a2,2,0,0,1-2-2V33.69a2.05,2.05,0,0,1,.33-1.1L74.19,11.14a2,2,0,0,0-1.67-3.09h-17a2,2,0,0,0-2,2V25.79c0,7.15-3.71,13.05-11.92,13.05-4.91,0-8.36-1.66-10.87-5A2,2,0,0,1,31.07,31l2.53-1.88a1.89,1.89,0,0,1,1.17-.39,2.09,2.09,0,0,1,1.59.75,5.33,5.33,0,0,0,4.09,2.11c3,0,4.63-1.54,4.63-6.49V10a2,2,0,0,0-2-2H35.27V1m0-1a1.05,1.05,0,0,0-.71.29,1,1,0,0,0-.29.71V8a1,1,0,0,0,1,1h7.81a1,1,0,0,1,1,1V25.1c0,5.07-1.72,5.49-3.63,5.49a4.4,4.4,0,0,1-3.33-1.75,3.05,3.05,0,0,0-2.35-1.11,2.92,2.92,0,0,0-1.77.59L30.47,30.2a3,3,0,0,0-1.17,2,3,3,0,0,0,.59,2.27c2.72,3.64,6.54,5.41,11.67,5.41,8,0,12.92-5.38,12.92-14.05V10.05a1,1,0,0,1,1-1h17a1,1,0,0,1,.83,1.55L59.29,32a2.94,2.94,0,0,0-.5,1.65v2.46a3,3,0,0,0,3,3H84.71a3,3,0,0,0,3-3v-3a3,3,0,0,0-3-3H73.86A1,1,0,0,1,73,28.56L87.09,7.11a3,3,0,0,0,.49-1.64V3a3,3,0,0,0-3-3Z"/></g></g></svg>